<svg xmlns="http://www.w3.org/2000/svg" viewBox="0 0 40 40">
  <circle cx="20" cy="20" r="20" fill="#0d2818"/>
  <path d="M20 6C20 6 10 12 10 21C10 27.6 14.5 33 20 33C25.5 33 30 27.6 30 21C30 12 20 6 20 6Z" fill="#52b788"/>
  <path d="M20 10C20 10 14 15 14 21C14 24.8 16.7 28 20 28C23.3 28 26 24.8 26 21C26 15 20 10 20 10Z" fill="#95d5b2"/>
  <line x1="20" y1="16" x2="20" y2="31" stroke="#ffffff" stroke-width="1.8" stroke-linecap="round"/>
  <line x1="20" y1="22" x2="17" y2="19" stroke="#ffffff" stroke-width="1.8" stroke-linecap="round"/>
  <line x1="20" y1="26" x2="23" y2="23" stroke="#ffffff" stroke-width="1.8" stroke-linecap="round"/>
</svg>
